<svg width="302" height="98" viewBox="0 0 302 98" fill="none" xmlns="http://www.w3.org/2000/svg">
<path d="M283.549 0H294.866V36.1064C294.866 39.5195 295.434 42.1841 296.572 44.1002C297.71 46.0163 299.327 47.0641 301.422 47.2438V57.1236H301.153C295.584 57.1236 291.243 55.477 288.129 52.1837C285.076 48.8305 283.549 44.16 283.549 38.1722V0ZM224 57.1236V47.2438H260.556V28.2025H244.927V43.7409H233.61V18.3227H266.124C268.16 18.3227 269.627 18.7718 270.525 19.6699C271.423 20.5681 271.872 21.9154 271.872 23.7117V57.1236H224ZM260.376 94.3977C258.52 94.3977 257.053 93.9187 255.975 92.9606C254.957 92.0625 254.448 90.7152 254.448 88.9189V64.5784H265.765V84.5178H296.033V94.3977H260.376Z" fill="#16125D"/>
<path d="M197.031 38.9805V13.5622H165.774V3.68237H202.599C204.755 3.68237 206.252 4.10152 207.09 4.93981C207.928 5.7781 208.347 7.27505 208.347 9.43066V38.9805H197.031ZM185.714 26.8552V47.2436H223.796V57.1235H150.865V47.2436H174.397V26.8552H185.714Z" fill="#16125D"/>
<path d="M154.087 27.8433H140.974V38.2621C140.974 41.256 141.573 43.4714 142.77 44.9085C144.028 46.2857 146.064 47.0641 148.878 47.2438H151.034V57.1236H148.609C142.321 57.1236 137.591 55.5967 134.417 52.543C131.244 49.4293 129.657 44.9385 129.657 39.0704V0H140.974V17.9634H154.087V27.8433ZM123.101 56.7644C117.771 56.7644 112.831 55.5069 108.281 52.992C103.79 50.4772 100.527 47.2138 98.4907 43.202C96.5147 47.3935 93.1615 50.7766 88.4311 53.3513C83.7008 55.8662 78.4615 57.1236 72.7132 57.1236V47.2438C76.6651 47.2438 80.138 46.3755 83.1319 44.6391C86.1857 42.9026 88.521 40.5075 90.1377 37.4537C91.8143 34.34 92.6525 30.7773 92.6525 26.7655V16.0772H103.969V26.7655C103.969 30.7174 104.748 34.2203 106.305 37.2741C107.921 40.3278 110.167 42.723 113.041 44.4594C115.975 46.136 119.328 46.9743 123.101 46.9743V56.7644ZM140.615 74.2787C141.034 75.7158 141.244 77.2726 141.244 78.9492C141.244 82.3622 140.405 85.4459 138.729 88.2003C137.112 91.0146 134.807 93.2001 131.813 94.757C128.879 96.3138 125.556 97.0922 121.843 97.0922C118.071 97.0922 114.688 96.3138 111.694 94.757C108.76 93.2001 106.454 91.0146 104.778 88.2003C103.101 85.4459 102.263 82.3622 102.263 78.9492C102.263 75.4164 103.071 72.3027 104.688 69.6082C106.365 66.8538 108.67 64.7281 111.604 63.2312C114.598 61.6744 118.011 60.896 121.843 60.896H139.806V70.7758H121.843C119.448 70.7758 117.472 71.5542 115.915 73.1111C114.358 74.6679 113.58 76.6139 113.58 78.9492C113.58 81.3443 114.358 83.3203 115.915 84.8771C117.472 86.4339 119.448 87.2123 121.843 87.2123C124.178 87.2123 126.124 86.4339 127.681 84.8771C129.238 83.3203 130.016 81.3443 130.016 78.9492C130.016 77.3923 129.807 75.8355 129.388 74.2787H140.615Z" fill="#16125D"/>
<path d="M36.5555 21.287C34.5796 25.239 31.2264 28.4724 26.496 30.9873C21.7657 33.4423 16.6161 34.6698 11.0475 34.6698V24.7899C14.8198 24.7899 18.2029 23.9216 21.1968 22.1852C24.2506 20.4487 26.6158 18.0835 28.2924 15.0896C30.0288 12.0359 30.8971 8.62281 30.8971 4.8505V0.449463H42.214V4.8505C42.214 8.56293 43.0523 11.946 44.7289 14.9998C46.4055 17.9937 48.7108 20.3589 51.6448 22.0954C54.6387 23.7719 57.9919 24.6102 61.7043 24.6102V34.3105C56.2554 34.3105 51.1658 33.1129 46.4354 30.7178C41.7649 28.2628 38.4716 25.1192 36.5555 21.287ZM42.214 34.3105V47.2441H72.9314V57.124H0V47.2441H30.8971V34.3105H42.214Z" fill="#16125D"/>
</svg>
